<?xml version="1.0" encoding="UTF-8"?>
<svg id="Ebene_1" data-name="Ebene 1" xmlns="http://www.w3.org/2000/svg" version="1.1" viewBox="0 0 200 200">
  <defs>
    <style>
      .cls-1 {
        fill: #de5e17;
        stroke-width: 0px;
      }
    </style>
  </defs>
  <path id="Pfad_4" data-name="Pfad 4" class="cls-1" d="M61.59,157.39h77.2v-19.3H61.59v19.3ZM61.59,118.8h77.2v-19.3H61.59v19.3ZM42.29,195.99c-5.13.07-10.06-1.98-13.63-5.67-3.69-3.56-5.74-8.5-5.67-13.63V22.3c-.07-5.13,1.98-10.06,5.67-13.63,3.56-3.69,8.5-5.74,13.63-5.67h77.2l57.9,57.9v115.8c.07,5.13-1.98,10.06-5.67,13.63-3.57,3.69-8.5,5.74-13.63,5.67H42.29ZM109.84,70.55V22.3H42.29v154.4h115.8v-106.14h-48.25ZM42.29,22.3h0Z"/>
</svg>