<?xml version="1.0" encoding="UTF-8"?>
<svg id="Ebene_1" data-name="Ebene 1" xmlns="http://www.w3.org/2000/svg" viewBox="0 0 38.78 37.13">
  <defs>
    <style>
      .cls-1 {
        fill: #323867;
        stroke: #323867;
        stroke-miterlimit: 10;
      }
    </style>
  </defs>
  <path class="cls-1" d="M7.15,36.63c-1.13,0-2.24-.19-3.35-.58-1.1-.38-2.07-1.01-2.9-1.88,1.17-.4,2-.98,2.5-1.75s.75-1.8.75-3.1c0-1.46.51-2.7,1.53-3.72,1.02-1.02,2.26-1.53,3.73-1.53s2.7.51,3.72,1.53c1.02,1.02,1.53,2.26,1.53,3.72,0,2.13-.73,3.88-2.18,5.25s-3.23,2.05-5.33,2.05ZM7.15,33.63c1.17,0,2.21-.42,3.13-1.25s1.38-1.85,1.38-3.05c0-.67-.21-1.21-.63-1.63s-.96-.63-1.63-.63-1.21.21-1.63.63-.63.96-.63,1.63c0,1.3-.14,2.26-.43,2.88s-.81.99-1.58,1.13c.2.03.53.09,1,.18s.8.13,1,.13ZM18.65,24.78l-4.5-4.75L32.95,1.23c.47-.47.98-.71,1.55-.73s1.1.23,1.6.73l1.45,1.45c.5.5.74,1.04.73,1.63s-.26,1.11-.73,1.58l-18.9,18.9Z"/>
</svg>