<?xml version="1.0" encoding="UTF-8"?>
<svg id="Ebene_1" data-name="Ebene 1" xmlns="http://www.w3.org/2000/svg" viewBox="0 0 33 41.16">
  <defs>
    <style>
      .cls-1 {
        fill: #323867;
        stroke: #323867;
        stroke-miterlimit: 10;
      }
    </style>
  </defs>
  <path class="cls-1" d="M16.5,20c.96,0,1.79-.34,2.47-1.03.68-.69,1.03-1.51,1.03-2.47s-.34-1.79-1.03-2.47c-.69-.68-1.51-1.03-2.48-1.03s-1.79.34-2.47,1.03c-.68.69-1.03,1.51-1.03,2.48s.34,1.79,1.03,2.47,1.51,1.03,2.48,1.02ZM16.5,36.55c4.43-4.03,7.71-7.69,9.83-10.98s3.18-6.18,3.18-8.68c0-3.93-1.25-7.14-3.76-9.65-2.51-2.5-5.59-3.75-9.24-3.75s-6.73,1.25-9.24,3.75c-2.51,2.5-3.76,5.72-3.76,9.65,0,2.5,1.08,5.39,3.25,8.68,2.17,3.28,5.42,6.94,9.75,10.98ZM16.5,40.5c-5.37-4.57-9.38-8.81-12.03-12.73S.5,20.23.5,16.9c0-5,1.61-8.98,4.83-11.95C8.54,1.98,12.27.5,16.5.5s7.96,1.48,11.18,4.45,4.83,6.95,4.83,11.95c0,3.33-1.33,6.96-3.98,10.88s-6.66,8.16-12.03,12.73Z"/>
</svg>