<?xml version="1.0" encoding="UTF-8"?>
<svg id="Ebene_1" data-name="Ebene 1" xmlns="http://www.w3.org/2000/svg" version="1.1" viewBox="0 0 182.7 56.5">
  <defs>
    <style>
      .cls-1 {
        fill: #bfd2eb;
        stroke-width: 0px;
      }
    </style>
  </defs>
  <g>
    <path class="cls-1" d="M24.1,11.5h5v29h-5v-4.1c-1.7,2.2-4.8,4.9-9.9,4.9-7.4,0-14.1-5.2-14.1-15.4s6.7-15.2,14.1-15.2,8.6,3.1,9.9,4.8v-4.1ZM5.2,26c0,6.2,3.5,10.9,9.5,10.9s9.7-5.1,9.7-10.9-5.2-10.8-9.7-10.8-9.5,3.6-9.5,10.7Z"/>
    <path class="cls-1" d="M32.9,11.3h5v3.1c.5-.8,2.7-3.9,6.6-3.9s3.2.6,4.5,1.2l-2.4,4.6c-1.1-.8-2.2-1-2.9-1-2,0-3.3.8-4.1,1.8-.8,1.1-1.7,3.1-1.7,7.8v15.3h-5V11.3Z"/>
    <path class="cls-1" d="M60.2,15.9v24.4h-5V15.9h-3.1v-4.6h3.1V.8h5v10.5h5v4.6h-5Z"/>
  </g>
  <path class="cls-1" d="M92.1,35.7h5.7v4.8h-5.7v8.8h-5.2v-8.8h-23.9L92.1,0v35.7h0ZM86.9,35.7V15.1l-14.8,20.6h14.8Z"/>
  <g>
    <path class="cls-1" d="M109.1,37.6l-13.4-26.3h5.7l10.3,20.8,9.5-20.8h5.6l-21.3,45.2h-5.6s9.2-18.8,9.2-18.8Z"/>
    <path class="cls-1" d="M125.6,25.5c0-8.8,6.5-15.3,15.4-15.3s15.4,6.5,15.4,15.3-6.6,15.3-15.4,15.3-15.4-6.4-15.4-15.3ZM130.8,25.5c0,7.1,5,10.8,10.2,10.8s10.2-3.7,10.2-10.8-4.9-10.9-10.2-10.9-10.2,3.8-10.2,10.9Z"/>
    <path class="cls-1" d="M164.7,28.1c0,2,0,4.4,1.4,6.2.8,1,2.3,2.2,5.1,2.2s4.3-1.3,5.1-2.2c1.4-1.8,1.4-4.2,1.4-6.2V11.1h5v17.5c0,3.6-.4,6.2-2.7,8.7-2.6,2.7-6,3.6-8.9,3.6s-6.3-.9-8.9-3.6c-2.3-2.5-2.7-5.2-2.7-8.8V11.1h5v16.9h0Z"/>
  </g>
</svg>