<?xml version="1.0" encoding="UTF-8"?>
<svg id="Ebene_1" data-name="Ebene 1" xmlns="http://www.w3.org/2000/svg" version="1.1" viewBox="0 0 421 410">
  <defs>
    <style>
      .cls-1 {
        fill: #de5e17;
        stroke: #de5e17;
        stroke-miterlimit: 10;
        stroke-width: 8px;
      }
    </style>
  </defs>
  <path class="cls-1" d="M408.51,319.97c-1.02,4.89-1.84,9.83-3.08,14.66-10.8,42.19-49.85,70.78-94,68.92-42.64-1.8-79.5-34.61-86.43-76.94-.31-1.89-.58-3.78-.89-5.8h-80.27c-7.51,26.67-34.5,36.81-55.63,27.76-21.02-9-30.39-33.61-20.79-54.43,9.1-19.74,34.41-30.87,57.54-17.8,51.98-51.99,103.9-103.91,156.1-156.12-1.39-3.34-3.05-7.34-4.79-11.51h-79.92c-.79,3.99-1.47,8.01-2.39,11.98-9.84,42.55-48.76,72.24-92.82,70.87-43.75-1.36-80.57-33.34-87.92-76.39C4.26,62.7,40.39,14.22,93.32,7.68c.73-.09,1.44-.45,2.15-.68,5.68,0,11.36,0,17.05,0,.86.23,1.71.55,2.59.68,37.89,5.73,63.48,26.62,76.58,62.56,2.27,6.23,3.29,12.92,4.94,19.59h79.85c7.18-25.83,33.02-36.47,54.18-28.36,20.79,7.97,31.34,31.35,23.42,52.15-4,10.5-11.17,18.21-21.47,22.73-12.94,5.67-25.6,4.43-37.9-2.42-52.15,52-104.14,103.83-155.91,155.45,1.93,4.61,3.6,8.59,5.24,12.5h80.08c.31-2.04.58-3.94.89-5.84,6.79-41.15,42.41-73.81,82.86-76.83,46.25-3.46,84.91,25.59,96.7,65.65,1.74,5.9,2.65,12.04,3.94,18.07v17.04ZM79.86,108c-15.6-19.77-16.05-38.73-1.51-53.34,12.9-12.97,33.71-14.36,48.05-3.16,7.43,5.8,12.11,13.37,13.63,22.68,2.15,13.17-2.2,24.3-11.73,33.75,16.5,7.72,27.47,19.93,33.49,36.71,20.03-22.88,24.24-66.36-4.15-96.02-28.56-29.85-75.18-30.93-104.65-2.38-30.29,29.34-27.71,73.57-6.49,98.52,5.98-16.83,16.95-29.08,33.35-36.74ZM340.36,319.86c16.29,7.57,27.41,19.86,33.45,36.83,22.42-26.72,23.03-72.51-9.15-101.01-30.72-27.21-78.44-23.49-105.22,8.45-26.31,31.37-18.57,73.48-.84,92.23,5.99-16.8,17.11-28.91,33.2-36.45-15.96-20.81-15.88-40.6.08-54.84,14.25-12.71,35.76-12.24,49.61,1.02,12.23,11.71,17.53,35.01-1.13,53.78ZM315.87,385.07c13.96-.14,27.06-3.73,39.13-11.11,2.15-1.32,2.91-2.58,2.53-5.22-2.82-19.9-21.29-35.57-41.77-35.24-20.85.34-38.98,16.13-41.04,35.98-.14,1.31,1.09,3.34,2.28,4.11,11.76,7.62,24.77,11.2,38.87,11.48ZM106.62,173.03c10.66.09,22.94-3.29,34.37-9.81,5.35-3.05,5.33-3.09,4.05-8.99-4.29-19.87-22.37-33.41-43.49-32.57-19.1.76-36.25,16.5-38.82,35.41-.32,2.32.28,3.48,2.16,4.65,12.02,7.45,25.04,11.3,41.73,11.3ZM316.18,77.44c-12.29,0-22.19,9.95-22.05,22.16.14,11.86,9.96,21.69,21.75,21.76,12.29.07,22.14-9.73,22.17-22.05.03-12.09-9.76-21.87-21.87-21.87ZM104.16,333.19c12.12-.03,21.86-9.69,22-21.83.14-12.04-10.14-22.27-22.2-22.1-12.12.17-21.76,9.98-21.72,22.11.04,12.13,9.8,21.85,21.92,21.82ZM316.16,310.03c9.74.03,17.79-7.9,17.85-17.57.06-9.79-8.12-18.05-17.9-18.04-9.71,0-17.67,7.94-17.73,17.69-.06,10.05,7.72,17.9,17.77,17.93ZM104.16,62.63c-9.8.01-17.74,7.81-17.86,17.54-.12,9.75,8.05,18.01,17.87,18.07,9.65.05,17.72-7.97,17.75-17.68.04-10.08-7.75-17.95-17.76-17.93Z"/>
</svg>