<?xml version="1.0" encoding="UTF-8"?>
<svg id="Ebene_1" data-name="Ebene 1" xmlns="http://www.w3.org/2000/svg" viewBox="0 0 193.98 194.01">
  <defs>
    <style>
      .cls-1 {
        fill: #323867;
        stroke-width: 0px;
      }
    </style>
  </defs>
  <path id="Pfad_39" data-name="Pfad 39" class="cls-1" d="M96.98,193.97c-12.92.07-25.71-2.53-37.58-7.64-11.54-4.92-22.02-12-30.9-20.87-8.86-8.88-15.94-19.37-20.85-30.91C2.54,122.69-.06,109.9,0,96.98c-.08-13.02,2.6-25.92,7.88-37.82,5.07-11.54,12.31-21.99,21.34-30.79,9.09-8.8,19.73-15.83,31.4-20.73C72.74,2.52,85.77-.08,98.93,0c12.51-.08,24.93,2.18,36.61,6.67,11.12,4.22,21.35,10.47,30.19,18.43,8.65,7.84,15.65,17.32,20.61,27.88,5.12,10.88,7.73,22.77,7.64,34.8,0,18.59-5.66,32.85-16.97,42.8-11.38,9.97-26.1,15.29-41.22,14.91h-17.94c-1.15-.13-2.29.32-3.03,1.21-.56.78-.85,1.71-.85,2.67.45,3.06,1.71,5.95,3.64,8.36,2.44,3.7,3.71,8.05,3.64,12.49.55,6.67-1.89,13.25-6.67,17.94-4.94,4.05-11.2,6.12-17.58,5.82h-.02ZM43.64,106.68c3.9.12,7.67-1.37,10.43-4.12,2.75-2.76,4.24-6.53,4.12-10.43.12-3.89-1.37-7.67-4.12-10.43-2.76-2.75-6.53-4.24-10.43-4.12-3.9-.12-7.67,1.37-10.43,4.12-2.75,2.76-4.24,6.53-4.12,10.43-.12,3.9,1.37,7.67,4.12,10.43,2.76,2.75,6.53,4.24,10.43,4.12ZM72.74,67.89c3.9.12,7.67-1.37,10.43-4.12,2.75-2.76,4.24-6.53,4.12-10.43.12-3.89-1.37-7.67-4.12-10.43-2.76-2.75-6.53-4.24-10.43-4.12-3.9-.12-7.67,1.37-10.43,4.12-2.75,2.76-4.24,6.53-4.12,10.43-.12,3.9,1.37,7.67,4.12,10.43,2.76,2.75,6.53,4.24,10.43,4.12ZM121.23,67.89c3.9.12,7.67-1.37,10.43-4.12,2.75-2.76,4.24-6.53,4.12-10.43.12-3.89-1.37-7.67-4.12-10.43-2.76-2.75-6.53-4.24-10.43-4.12-3.9-.12-7.67,1.37-10.43,4.12-2.75,2.76-4.24,6.53-4.12,10.43-.12,3.9,1.37,7.67,4.12,10.43,2.76,2.75,6.53,4.24,10.43,4.12ZM150.33,106.68c3.9.12,7.67-1.37,10.43-4.12,2.75-2.76,4.24-6.53,4.12-10.43.12-3.89-1.37-7.67-4.12-10.43-2.76-2.75-6.53-4.24-10.43-4.12-3.9-.12-7.67,1.37-10.43,4.12-2.75,2.76-4.24,6.53-4.12,10.43-.12,3.9,1.37,7.67,4.12,10.43,2.76,2.75,6.53,4.24,10.43,4.12ZM96.98,174.57c1.28.06,2.54-.37,3.52-1.21.89-.81,1.38-1.97,1.33-3.17-.31-2.99-1.59-5.8-3.64-8-2.71-4.07-3.99-8.94-3.64-13.82-.25-6.2,2.34-12.17,7.03-16.23,4.79-4.08,10.93-6.24,17.22-6.06h16.97c9.95.25,19.67-3.06,27.4-9.33,7.6-6.22,11.4-15.88,11.4-28.97.33-18.85-7.92-36.82-22.43-48.86-14.68-12.92-33.67-19.88-53.22-19.52-21.03-.38-41.32,7.76-56.25,22.56-15.18,14.23-23.63,34.22-23.28,55.02-.35,20.65,7.86,40.53,22.67,54.92,14.39,14.81,34.27,23.02,54.92,22.67h0Z"/>
</svg>